HIERARCHY
ROOT Hips
{
	OFFSET 0.000000 0.000000 0.000000
	CHANNELS 6 Xposition Yposition Zposition Xrotation Yrotation Zrotation
	JOINT LeftUpLeg_virtual
	{
		OFFSET 0.000000 0.000000 0.000000
		CHANNELS 3 Xrotation Yrotation Zrotation
		JOINT LeftUpLeg
		{
			OFFSET 11.394100 -6.187798 -0.413800
			CHANNELS 3 Xrotation Yrotation Zrotation
			JOINT LeftLeg
			{
				OFFSET 0.430247 -32.302673 3.732800
				CHANNELS 3 Xrotation Yrotation Zrotation
				JOINT LeftFoot
				{
					OFFSET -0.430247 -48.264931 -6.423300
					CHANNELS 3 Xrotation Yrotation Zrotation
					JOINT LeftToeBase
					{
						OFFSET 4.230900 -16.068199 23.438400
						CHANNELS 3 Xrotation Yrotation Zrotation
						JOINT LeftToe_End
						{
							OFFSET 4.510700 0.695400 19.974600
							CHANNELS 3 Xrotation Yrotation Zrotation
							End Site
							{
								OFFSET 0 0 0
							}
						}
					}
				}
			}
		}
	}
	JOINT RightUpLeg_virtual
	{
		OFFSET 0.000000 0.000000 0.000000
		CHANNELS 3 Xrotation Yrotation Zrotation
		JOINT RightUpLeg
		{
			OFFSET -11.333700 -6.187798 -0.413800
			CHANNELS 3 Xrotation Yrotation Zrotation
			JOINT RightLeg
			{
				OFFSET -0.430392 -32.302628 3.733000
				CHANNELS 3 Xrotation Yrotation Zrotation
				JOINT RightFoot
				{
					OFFSET 0.430392 -48.264973 -6.423500
					CHANNELS 3 Xrotation Yrotation Zrotation
					JOINT RightToeBase
					{
						OFFSET -4.230900 -16.068199 23.438400
						CHANNELS 3 Xrotation Yrotation Zrotation
						JOINT RightToe_End
						{
							OFFSET -4.510700 0.695400 19.974600
							CHANNELS 3 Xrotation Yrotation Zrotation
							End Site
							{
								OFFSET 0 0 0
							}
						}
					}
				}
			}
		}
	}
	JOINT Spine_virtual
	{
		OFFSET 0.000000 0.000000 0.000000
		CHANNELS 3 Xrotation Yrotation Zrotation
		JOINT Spine
		{
			OFFSET -0.002400 12.777504 0.315300
			CHANNELS 3 Xrotation Yrotation Zrotation
			JOINT Spine1
			{
				OFFSET -0.002067 5.816869 0.032633
				CHANNELS 3 Xrotation Yrotation Zrotation
				JOINT Spine1_split
				{
					OFFSET -0.002067 5.816869 0.032633
					CHANNELS 3 Xrotation Yrotation Zrotation
					JOINT Spine2
					{
						OFFSET -0.002067 5.816869 0.032633
						CHANNELS 3 Xrotation Yrotation Zrotation
						JOINT Neck_virtual
						{
							OFFSET 0.000000 0.000000 0.000000
							CHANNELS 3 Xrotation Yrotation Zrotation
							JOINT Neck
							{
								OFFSET -0.003700 21.199493 -0.826900
								CHANNELS 3 Xrotation Yrotation Zrotation
								JOINT Head
								{
									OFFSET 0.000000 20.442200 4.834800
									CHANNELS 3 Xrotation Yrotation Zrotation
									JOINT HeadTop_End
									{
										OFFSET 0.000000 34.668396 4.968400
										CHANNELS 3 Xrotation Yrotation Zrotation
										End Site
										{
											OFFSET 0 0 0
										}
									}
								}
							}
						}
						JOINT LeftShoulder_virtual
						{
							OFFSET 0.000000 0.000000 0.000000
							CHANNELS 3 Xrotation Yrotation Zrotation
							JOINT LeftShoulder
							{
								OFFSET 3.288150 8.794197 -1.372250
								CHANNELS 3 Xrotation Yrotation Zrotation
								JOINT LeftShoulder_split
								{
									OFFSET 3.288150 8.794197 -1.372250
									CHANNELS 3 Xrotation Yrotation Zrotation
									JOINT LeftArm
									{
										OFFSET 11.953299 -2.279007 -0.146200
										CHANNELS 3 Xrotation Yrotation Zrotation
										JOINT LeftForeArm
										{
											OFFSET 18.448900 0.000000 0.000000
											CHANNELS 3 Xrotation Yrotation Zrotation
											JOINT LeftHand
											{
												OFFSET 29.527798 0.000000 0.000000
												CHANNELS 3 Xrotation Yrotation Zrotation
												End Site
												{
													OFFSET 0 0 0
												}
											}
										}
									}
								}
							}
						}
						JOINT RightShoulder_virtual
						{
							OFFSET 0.000000 0.000000 0.000000
							CHANNELS 3 Xrotation Yrotation Zrotation
							JOINT RightShoulder
							{
								OFFSET -3.249400 8.794197 -1.372250
								CHANNELS 3 Xrotation Yrotation Zrotation
								JOINT RightShoulder_split
								{
									OFFSET -3.249400 8.794197 -1.372250
									CHANNELS 3 Xrotation Yrotation Zrotation
									JOINT RightArm
									{
										OFFSET -11.953299 -2.279007 -0.146200
										CHANNELS 3 Xrotation Yrotation Zrotation
										JOINT RightForeArm
										{
											OFFSET -18.448900 0.000000 0.000000
											CHANNELS 3 Xrotation Yrotation Zrotation
											JOINT RightHand
											{
												OFFSET -29.527802 0.000000 0.000000
												CHANNELS 3 Xrotation Yrotation Zrotation
												End Site
												{
													OFFSET 0 0 0
												}
											}
										}
									}
								}
							}
						}
					}
				}
			}
		}
	}
}
MOTION
Frames: 8
Frame Time: 0.03333333
9.010124 82.060234 -3.912094 0.000000 0.000000 0.000000 25.115456 -83.647756 27.513298 -37.190370 -7.413343 19.289627 49.190053 -6.287459 13.119117 -14.334130 -6.807846 -24.126067 -1.795838 0.631114 -3.058972 0.000000 0.000000 0.000000 17.343180 -82.527905 21.007488 -20.570595 7.618998 -24.937813 43.984806 7.271617 -11.528919 -20.505275 -0.196077 27.238740 -13.917135 1.713038 0.985763 0.000000 0.000000 0.000000 24.103056 -78.677851 25.761653 1.848682 4.962500 2.687371 0.333779 3.485315 1.153324 1.440520 -0.944107 0.757045 0.000000 0.000000 0.000000 0.885929 2.964980 0.976879 -3.502845 7.438254 -1.341535 2.618155 41.465132 -5.367873 0.000000 0.000000 0.000000 1.004661 3.408977 1.113316 1.449576 11.352809 -10.354494 -3.489864 -2.026410 -2.158801 -9.900197 10.591258 -65.222849 -178.908008 -63.322575 -176.802780 0.000000 0.000000 0.000000 1.881399 3.588572 0.663166 1.348565 9.384634 9.983477 0.654488 3.333056 2.211691 -13.231171 34.503408 48.132463 -179.640191 71.039582 179.289146 0.000000 0.000000 0.000000 
8.927578 81.826721 -3.746662 0.000000 0.000000 0.000000 18.290775 -83.352439 20.410822 -37.739305 -6.777867 19.015708 49.376004 -6.696509 13.670307 -14.242509 -7.946362 -23.083249 -2.501757 0.724092 -3.161681 0.000000 0.000000 0.000000 11.981549 -81.040331 15.118291 -19.606068 6.065940 -24.574208 44.794764 5.603660 -11.279318 -20.823582 -2.162786 26.251065 -13.378205 1.848442 1.931147 0.000000 0.000000 0.000000 21.629688 -77.918170 22.790171 1.563728 5.138016 2.717785 0.264237 3.593465 1.121667 1.571450 -1.596396 0.805031 0.000000 0.000000 0.000000 0.817365 3.113550 0.936174 -2.801569 6.923712 -1.390912 2.872067 39.984894 -4.983618 0.000000 0.000000 0.000000 1.018969 3.458670 1.123125 1.303932 11.070440 -9.234800 -2.834582 -1.644125 -2.997915 -8.080117 8.135491 -65.530153 -179.521660 -62.889732 -177.348389 0.000000 0.000000 0.000000 1.596140 3.686670 0.677629 1.354363 8.878030 9.168662 0.455364 3.975731 2.253953 -12.335290 33.134631 48.103885 -178.767784 69.770942 178.352113 0.000000 0.000000 0.000000 
8.858726 84.424049 -3.842690 0.000000 0.000000 0.000000 10.595098 -80.527445 12.409236 -36.987561 -5.526502 17.995894 44.816102 -8.245521 13.508405 -10.896635 -10.467764 -22.717317 -2.823828 0.682330 -2.990939 0.000000 0.000000 0.000000 8.491072 -77.862613 11.256737 -19.147272 4.210418 -23.687986 44.077284 4.173492 -10.825241 -15.234464 -2.655183 25.506010 -18.171558 1.142504 4.143276 0.000000 0.000000 0.000000 17.231736 -75.924000 18.037831 1.123586 5.082673 2.693938 0.068792 3.617015 0.995844 1.387786 -2.316630 0.750397 0.000000 0.000000 0.000000 0.737917 3.153751 0.813737 -2.007628 6.479860 -1.429282 3.051616 37.810247 -4.175182 0.000000 0.000000 0.000000 0.900129 3.426383 1.023868 1.126280 10.276771 -7.801395 -1.809884 -1.057477 -3.458051 -6.303048 4.255991 -64.041479 -179.949544 -62.263827 -177.878808 0.000000 0.000000 0.000000 1.236889 3.640376 0.602295 1.301107 8.333241 8.260093 0.142574 4.407835 2.121586 -10.778541 30.621507 47.515536 -178.456505 67.446759 177.981643 0.000000 0.000000 0.000000 
8.833702 89.147171 -4.090435 0.000000 0.000000 0.000000 6.771255 -75.625965 8.350885 -34.808358 -3.677904 16.584480 36.581947 -10.135079 12.228289 -4.722523 -13.554272 -22.403090 -2.692147 0.509188 -2.500458 0.000000 0.000000 0.000000 6.428269 -73.601975 9.044223 -19.292773 2.473508 -22.504818 42.413894 3.426667 -10.306971 -5.674393 -1.630260 25.403709 -25.932833 -0.596598 6.752924 0.000000 0.000000 0.000000 12.756311 -72.726830 13.542710 0.692861 4.823882 2.603389 -0.158129 3.553771 0.832939 0.990412 -2.552306 0.712305 0.000000 0.000000 0.000000 0.620963 3.089018 0.665747 -1.297811 6.128033 -1.547733 3.085461 35.159048 -3.125537 0.000000 0.000000 0.000000 0.678550 3.326160 0.875754 0.987658 9.076346 -6.454860 -0.767273 -0.475189 -3.591526 -4.808469 -0.367012 -61.287567 179.902852 -61.684449 -178.210823 0.000000 0.000000 0.000000 0.915057 3.485192 0.467666 1.192846 7.817837 7.359296 -0.345837 4.509139 1.814945 -8.718442 27.284941 46.208487 -178.628571 65.097426 178.087921 0.000000 0.000000 0.000000 
8.762232 94.804817 -4.580509 0.000000 0.000000 0.000000 5.420071 -69.920305 6.830496 -31.630681 -1.191458 15.151832 27.251999 -10.778844 10.030531 2.163465 -15.411700 -20.942762 -1.862889 0.246439 -2.100624 0.000000 0.000000 0.000000 4.986239 -68.528292 7.731557 -19.780419 0.697661 -21.039874 40.167844 2.793344 -9.745614 3.587556 0.051193 24.844931 -31.810906 -2.781748 8.728989 0.000000 0.000000 0.000000 8.963256 -68.654931 10.079763 0.436239 4.382559 2.458425 -0.280901 3.407774 0.681423 0.552652 -2.297108 0.712832 0.000000 0.000000 0.000000 0.465723 2.926962 0.538147 -0.862334 5.823380 -1.785406 2.958048 32.359606 -2.058445 0.000000 0.000000 0.000000 0.477825 3.162423 0.722214 0.957709 7.601912 -5.672877 -0.159601 -0.124702 -3.401587 -3.653656 -4.997021 -58.070917 -179.981441 -61.389112 -178.371797 0.000000 0.000000 0.000000 0.744120 3.279916 0.350754 1.059716 7.467967 6.597510 -0.757176 4.405510 1.279686 -6.616844 23.559047 44.447521 -179.066865 63.567799 178.478553 0.000000 0.000000 0.000000 
8.682758 100.071915 -5.035805 0.000000 0.000000 0.000000 4.820021 -64.520316 6.213197 -27.679075 1.881373 13.777284 19.025154 -9.254330 7.794782 6.756644 -14.589822 -17.877172 -0.621517 -0.031247 -2.048976 0.000000 0.000000 0.000000 3.632666 -63.286730 6.759819 -20.629751 -0.824639 -19.377245 37.782131 1.867121 -9.097260 9.133356 1.235495 22.733310 -31.281133 -4.168223 9.742171 0.000000 0.000000 0.000000 6.151332 -64.084147 7.815347 0.452700 3.799842 2.212305 -0.196430 3.180929 0.565423 0.602343 -1.857826 0.668736 0.000000 0.000000 0.000000 0.315997 2.663356 0.460555 -0.871728 5.604122 -2.169664 2.599891 29.560987 -1.089786 0.000000 0.000000 0.000000 0.389953 2.913896 0.589021 1.024404 6.041827 -5.618662 -0.164070 -0.043094 -3.018109 -3.060174 -8.908332 -55.306210 -179.785018 -61.805207 -178.498525 0.000000 0.000000 0.000000 0.779529 3.039488 0.275371 0.922518 7.306223 6.068987 -1.094467 4.187589 0.660265 -4.907999 19.931148 42.539695 -179.575154 63.427063 178.991104 0.000000 0.000000 0.000000 
8.569142 103.969139 -5.353008 0.000000 0.000000 0.000000 4.441007 -60.070189 6.079248 -23.673340 5.022593 12.761318 13.786863 -6.487687 6.166212 7.541045 -11.526198 -14.979337 0.067696 -0.201097 -2.051224 0.000000 0.000000 0.000000 2.546090 -57.992896 6.077297 -21.824013 -1.782883 -17.880532 35.423188 0.696848 -8.302255 10.229936 1.926288 19.355465 -24.362334 -4.037400 9.841656 0.000000 0.000000 0.000000 4.343027 -59.219632 6.613341 0.653821 3.128303 1.828139 0.141269 2.852812 0.459940 1.018578 -1.276202 0.634286 0.000000 0.000000 0.000000 0.256649 2.320209 0.428346 -1.233745 5.346833 -2.608934 2.071753 26.910665 -0.336425 0.000000 0.000000 0.000000 0.462922 2.572491 0.474230 1.125124 4.542850 -6.234618 -0.805979 -0.121608 -2.473287 -3.264906 -11.627462 -53.505513 -179.621162 -63.013064 -178.692734 0.000000 0.000000 0.000000 0.965991 2.768324 0.233961 0.836277 7.272190 5.866064 -1.262306 3.957521 -0.023281 -3.886481 16.786025 40.976945 179.958395 64.823276 179.541344 0.000000 0.000000 0.000000 
8.402847 106.281334 -5.622253 0.000000 0.000000 0.000000 4.152034 -56.698678 6.177215 -20.717825 7.578945 12.187214 12.749220 -3.454251 5.127899 5.299146 -7.409256 -13.028607 -0.345427 -0.247503 -2.292596 0.000000 0.000000 0.000000 1.926302 -53.190245 5.735586 -23.325106 -1.902118 -16.752753 32.441281 -0.440627 -7.578089 9.122383 2.850234 15.940705 -14.873524 -2.668481 8.514269 0.000000 0.000000 0.000000 3.537364 -54.260577 6.125006 0.875808 2.373457 1.298679 0.616177 2.439183 0.322129 1.445026 -0.998660 0.488501 0.000000 0.000000 0.000000 0.336285 1.911171 0.375940 -1.854413 5.049228 -2.958343 1.462561 24.394488 0.231042 0.000000 0.000000 0.000000 0.692200 2.147440 0.337213 1.197036 3.213656 -7.184698 -1.861506 -0.262555 -1.799771 -4.396780 -13.170685 -52.829840 -179.596150 -64.609539 -179.043669 0.000000 0.000000 0.000000 1.237305 2.446065 0.182579 0.781419 7.332812 6.001668 -1.202594 3.800758 -0.597002 -3.676438 14.275235 40.143559 179.551262 67.332954 -179.877062 0.000000 0.000000 0.000000 
